Coordinates
version=1
nRows=65
nColumns=12
inDegrees=yes

Units are S.I. units (second, meters, Newtons, ...)
Angles are in degrees

endheader
time	SC_y	SC_z	SC_x	AC_y	AC_z	AC_x	GH_y	GH_z	GH_yy	EL_x	PS_y
       0.0              -17.85          8.276           36.1           49.3         -14.09         -17.96         -151.5         -10.96         -54.06          13.24          39.95
   0.04344              -17.85          8.276           36.1           49.3         -14.08         -17.95         -151.5         -10.95         -54.07          13.24          39.96
   0.08688              -17.85          8.276           36.1           49.3         -14.08         -17.95         -151.5         -10.94         -54.08          13.24          39.97
    0.1303              -17.85          8.276           36.1           49.3         -14.08         -17.94         -151.4         -10.93          -54.1          13.23          39.98
    0.1738              -17.85          8.276          36.09          49.29         -14.07         -17.93         -151.4         -10.92         -54.11          13.23           40.0
    0.2172              -17.85          8.276          36.09          49.29         -14.07         -17.93         -151.4         -10.91         -54.13          13.23          40.01
    0.2606              -17.85          8.276          36.09          49.29         -14.07         -17.92         -151.4          -10.9         -54.14          13.23          40.03
    0.3041              -17.85          8.276          36.09          49.29         -14.06         -17.91         -151.4         -10.88         -54.16          13.23          40.04
    0.3475              -17.85          8.276          36.09          49.29         -14.06         -17.91         -151.4         -10.87         -54.18          13.23          40.06
     0.391              -17.85          8.275          36.09          49.29         -14.05          -17.9         -151.4         -10.86          -54.2          13.23          40.08
    0.4344              -17.85          8.275          36.09          49.28         -14.05         -17.89         -151.4         -10.84         -54.22          13.23           40.1
    0.4779              -17.85          8.275          36.09          49.28         -14.04         -17.88         -151.4         -10.82         -54.25          13.23          40.12
    0.5213              -17.85          8.275          36.08          49.28         -14.03         -17.87         -151.4         -10.81         -54.27          13.23          40.15
    0.5647              -17.85          8.275          36.08          49.28         -14.03         -17.86         -151.4         -10.79          -54.3          13.23          40.17
    0.6082              -17.85          8.275          36.08          49.27         -14.02         -17.84         -151.4         -10.77         -54.33          13.23           40.2
    0.6516              -17.85          8.275          36.08          49.27         -14.01         -17.83         -151.4         -10.74         -54.36          13.23          40.23
    0.6951              -17.85          8.274          36.08          49.27          -14.0         -17.82         -151.4         -10.72          -54.4          13.23          40.26
    0.7385              -17.85          8.274          36.07          49.26         -13.99          -17.8         -151.4         -10.69         -54.44          13.23           40.3
    0.7819              -17.85          8.274          36.07          49.26         -13.98         -17.78         -151.3         -10.66         -54.48          13.23          40.34
    0.8254              -17.85          8.274          36.07          49.25         -13.97         -17.77         -151.3         -10.63         -54.52          13.23          40.38
    0.8688              -17.85          8.273          36.07          49.25         -13.96         -17.75         -151.3         -10.59         -54.57          13.23          40.43
    0.9123              -17.85          8.273          36.06          49.24         -13.95         -17.72         -151.3         -10.56         -54.63          13.23          40.48
    0.9557              -17.85          8.273          36.06          49.23         -13.93          -17.7         -151.3         -10.51         -54.69          13.23          40.54
    0.9991              -17.85          8.272          36.05          49.23         -13.92         -17.67         -151.3         -10.46         -54.76          13.23           40.6
     1.043              -17.85          8.272          36.05          49.22          -13.9         -17.64         -151.2         -10.41         -54.83          13.23          40.67
     1.086              -17.85          8.271          36.04          49.21         -13.88          -17.6         -151.2         -10.35         -54.92          13.23          40.75
     1.129              -17.85          8.271          36.04           49.2         -13.85         -17.57         -151.2         -10.29         -55.01          13.23          40.84
     1.173              -17.85           8.27          36.03          49.19         -13.83         -17.52         -151.2         -10.21         -55.12          13.22          40.94
     1.216              -17.85           8.27          36.02          49.18          -13.8         -17.47         -151.1         -10.13         -55.24          13.22          41.05
      1.26              -17.85          8.269          36.01          49.16         -13.77         -17.42         -151.1         -10.03         -55.37          13.22          41.18
     1.303              -17.85          8.268           36.0          49.15         -13.73         -17.36         -151.0         -9.923         -55.53          13.22          41.32
     1.347              -17.85          8.267          35.99          49.13         -13.69         -17.28         -151.0         -9.797         -55.71          13.22          41.49
      1.39              -17.85          8.266          35.98          49.11         -13.64          -17.2         -150.9         -9.653         -55.91          13.22          41.68
     1.434              -17.85          8.264          35.96          49.08         -13.58          -17.1         -150.9         -9.484         -56.15          13.21          41.91
     1.477              -17.85          8.263          35.95          49.05         -13.51         -16.99         -150.8         -9.288         -56.43          13.21          42.17
      1.52              -17.85          8.261          35.92          49.02         -13.43         -16.85         -150.7         -9.056         -56.76          13.21          42.48
     1.564              -17.85          8.258           35.9          48.98         -13.33         -16.69         -150.6          -8.78         -57.15           13.2          42.84
     1.607              -17.85          8.256          35.87          48.93         -13.22          -16.5         -150.4          -8.45         -57.62           13.2          43.28
     1.651              -17.85          8.252          35.83          48.87         -13.08         -16.27         -150.3          -8.05         -58.19          13.19          43.82
     1.694              -17.86          8.248          35.79           48.8         -12.91         -15.99         -150.1         -7.562         -58.89          13.19          44.47
     1.738              -17.86          8.243          35.73          48.71         -12.71         -15.64         -149.8         -6.959         -59.74          13.18          45.27
     1.781              -17.86          8.237          35.67           48.6         -12.45          -15.2         -149.5         -6.208         -60.81          13.17          46.27
     1.825              -17.86           8.23          35.58          48.46         -12.12         -14.66         -149.1         -5.261         -62.16          13.15          47.53
     1.868              -17.86           8.22          35.47          48.28         -11.71         -13.96         -148.7         -4.058         -63.87          13.14          49.13
     1.911              -17.86          8.207          35.33          48.05         -11.17         -13.07         -148.0         -2.518         -66.06          13.12          51.18
     1.955              -17.87          8.191          35.15          47.76         -10.49         -11.92         -147.2        -0.5412         -68.87          13.09          53.81
     1.998              -17.87           8.17          34.92          47.39         -9.621         -10.46         -146.2          1.984         -72.46          13.05          57.17
     2.042              -17.88          8.144          34.63          46.92         -8.526         -8.622         -144.9          5.158         -76.97          13.01          61.39
     2.085              -17.89          8.112          34.28          46.34         -7.191         -6.382         -143.3          9.027         -82.47          12.95          66.54
     2.129              -17.89          8.075          33.87          45.68         -5.644         -3.785         -141.5          13.51         -88.84          12.89          72.51
     2.172               -17.9          8.035          33.43          44.96         -3.968        -0.9729         -139.5          18.37         -95.75          12.82          78.97
     2.216              -17.91          7.995          32.98          44.24         -2.293          1.839         -137.6          23.22         -102.6          12.75          85.43
     2.259              -17.92          7.959          32.58          43.58         -0.746          4.436         -135.8          27.71         -109.0          12.69           91.4
     2.302              -17.93          7.927          32.22          43.01         0.5888          6.676         -134.2          31.57         -114.5          12.63          96.55
     2.346              -17.93          7.901          31.93          42.54          1.684          8.515         -132.9          34.75         -119.0          12.58          100.8
     2.389              -17.94           7.88           31.7          42.17          2.555          9.977         -131.9          37.27         -122.6          12.55          104.1
     2.433              -17.94          7.864          31.52          41.87          3.237          11.12         -131.1          39.25         -125.4          12.52          106.8
     2.476              -17.94          7.851          31.38          41.65          3.769          12.01         -130.4          40.79         -127.6           12.5          108.8
      2.52              -17.94          7.841          31.27          41.47          4.184          12.71         -129.9          41.99         -129.3          12.48          110.4
     2.563              -17.95          7.833          31.19          41.33           4.51          13.26         -129.6          42.94         -130.7          12.47          111.7
     2.606              -17.95          7.827          31.12          41.22           4.77          13.69         -129.3          43.69         -131.7          12.46          112.7
      2.65              -17.95          7.822          31.06          41.13          4.978          14.04         -129.0          44.29         -132.6          12.45          113.5
     2.693              -17.95          7.818          31.02          41.05          5.146          14.33         -128.8          44.78         -133.3          12.44          114.1
     2.737              -17.95          7.815          30.98           41.0          5.284          14.56         -128.7          45.18         -133.9          12.44          114.7
      2.78              -17.95          7.812          30.95          40.95          5.398          14.75         -128.5          45.51         -134.3          12.43          115.1
